<svg width="238" height="72" viewBox="0 0 238 72" fill="none" xmlns="http://www.w3.org/2000/svg">
<circle cx="41.1742" cy="34.1443" r="8.16495" fill="#6366F1"/>
<path d="M64.1842 34.1443C64.1842 46.8526 53.8821 57.1546 41.1739 57.1546C28.4656 57.1546 18.1636 46.8526 18.1636 34.1443C18.1636 21.4361 28.4656 11.134 41.1739 11.134" stroke="#6366F1" stroke-width="16.3299"/>
<ellipse cx="41.1741" cy="34.1445" rx="2.2268" ry="2.2268" fill="#0F172A"/>
<line x1="78.2876" y1="34.1443" x2="38.2051" y2="34.1443" stroke="#C7D2FE" stroke-width="2.2268"/>
<circle cx="80.5147" cy="34.1443" r="5.19588" transform="rotate(-90 80.5147 34.1443)" fill="#C7D2FE"/>
<rect x="37.4629" y="37.1133" width="5.93814" height="7.42268" rx="0.742268" transform="rotate(-90 37.4629 37.1133)" fill="#C7D2FE"/>
<path d="M64.4737 9.4042H77.6861C77.785 10.1564 77.8345 10.7502 77.8345 11.1856C77.8345 14.5902 76.7162 17.2129 74.4795 19.0537C72.1834 20.9341 68.8481 21.8743 64.4737 21.8743C60.0993 21.8743 56.764 20.9341 54.4679 19.0537C52.2312 17.2129 51.1129 14.5902 51.1129 11.1856C51.1129 7.7811 52.2312 5.15842 54.4679 3.3176C56.764 1.43719 60.0993 0.496981 64.4737 0.496981C68.1356 0.496981 71.0749 1.17987 73.2918 2.54564C75.4494 3.85203 76.8349 5.74234 77.4485 8.21657H69.1648C68.2147 7.02894 66.651 6.43512 64.4737 6.43512C60.7129 6.43512 58.8325 8.01863 58.8325 11.1856C58.8325 14.3527 60.7129 15.9362 64.4737 15.9362C66.849 15.9362 68.4918 15.2434 69.4024 13.8578H64.4737V9.4042ZM86.896 3.76296V6.8211C88.5587 4.5844 91.1319 3.46605 94.6156 3.46605V10.5918C91.7653 10.5918 89.7661 10.9283 88.6181 11.6013C87.47 12.2743 86.896 13.4223 86.896 15.0454V21.5774L79.7702 21.5774V3.76296H86.896ZM102.336 12.6702C102.336 14.8475 103.92 15.9362 107.087 15.9362C110.254 15.9362 111.837 14.8475 111.837 12.6702C111.837 10.4929 110.254 9.4042 107.087 9.4042C103.92 9.4042 102.336 10.4929 102.336 12.6702ZM98.1796 5.90069C100.238 4.2776 103.207 3.46605 107.087 3.46605C110.986 3.46605 113.955 4.2776 115.994 5.90069C117.973 7.4842 118.963 9.74069 118.963 12.6702C118.963 15.5997 117.973 17.8562 115.994 19.4397C113.955 21.0628 110.986 21.8743 107.087 21.8743C103.207 21.8743 100.238 21.0628 98.1796 19.4397C96.2002 17.8562 95.2106 15.5997 95.2106 12.6702C95.2106 9.74069 96.2002 7.4842 98.1796 5.90069ZM127.272 12.6702C127.272 14.8475 128.855 15.9362 132.022 15.9362C135.189 15.9362 136.773 14.8475 136.773 12.6702C136.773 10.4929 135.189 9.4042 132.022 9.4042C128.855 9.4042 127.272 10.4929 127.272 12.6702ZM123.115 5.90069C125.174 4.2776 128.143 3.46605 132.022 3.46605C135.922 3.46605 138.891 4.2776 140.93 5.90069C142.909 7.4842 143.899 9.74069 143.899 12.6702C143.899 15.5997 142.909 17.8562 140.93 19.4397C138.891 21.0628 135.922 21.8743 132.022 21.8743C128.143 21.8743 125.174 21.0628 123.115 19.4397C121.136 17.8562 120.146 15.5997 120.146 12.6702C120.146 9.74069 121.136 7.4842 123.115 5.90069ZM161.114 3.76296L168.833 3.76296L161.41 21.5774H150.722L143.299 3.76296L151.019 3.76296L156.066 15.8768L161.114 3.76296ZM184.519 10.8887C183.886 9.50317 182.421 8.81038 180.125 8.81038C177.829 8.81038 176.364 9.50317 175.731 10.8887H184.519ZM191.882 13.8578H175.582C176.057 15.6392 177.571 16.53 180.125 16.53C181.966 16.53 183.282 16.0351 184.074 15.0454H191.704C190.655 19.598 186.795 21.8743 180.125 21.8743C176.245 21.8743 173.276 21.0628 171.218 19.4397C169.238 17.8562 168.249 15.5997 168.249 12.6702C168.249 9.74069 169.238 7.4842 171.218 5.90069C173.276 4.2776 176.245 3.46605 180.125 3.46605C184.024 3.46605 186.993 4.2776 189.032 5.90069C191.011 7.4842 192.001 9.74069 192.001 12.6702C192.001 12.8483 191.991 13.0463 191.971 13.264L191.882 13.8578Z" fill="#C7D2FE"/>
<path d="M96.3297 53.1979H109.542C109.641 53.9501 109.69 54.5439 109.69 54.9793C109.69 58.3839 108.572 61.0066 106.335 62.8474C104.039 64.7278 100.704 65.668 96.3297 65.668C91.9552 65.668 88.62 64.7278 86.3239 62.8474C84.0872 61.0066 82.9688 58.3839 82.9688 54.9793C82.9688 51.5748 84.0872 48.9521 86.3239 47.1113C88.62 45.2309 91.9552 44.2907 96.3297 44.2907C99.9915 44.2907 102.931 44.9736 105.148 46.3393C107.305 47.6457 108.691 49.536 109.305 52.0103H101.021C100.071 50.8226 98.507 50.2288 96.3297 50.2288C92.5688 50.2288 90.6884 51.8123 90.6884 54.9793C90.6884 58.1464 92.5688 59.7299 96.3297 59.7299C98.7049 59.7299 100.348 59.0371 101.258 57.6515H96.3297V53.1979ZM118.752 47.5567V50.6148C120.415 48.3781 122.988 47.2598 126.472 47.2598V54.3855C123.621 54.3855 121.622 54.722 120.474 55.395C119.326 56.068 118.752 57.216 118.752 58.8391V65.3711H111.626V47.5567H118.752ZM134.192 56.4639C134.192 58.6412 135.776 59.7299 138.943 59.7299C142.11 59.7299 143.693 58.6412 143.693 56.4639C143.693 54.2866 142.11 53.1979 138.943 53.1979C135.776 53.1979 134.192 54.2866 134.192 56.4639ZM143.693 49.7241V47.5567H150.819V65.3711H143.693V63.2037C142.05 64.8466 139.675 65.668 136.568 65.668C133.46 65.668 131.085 64.8565 129.442 63.2334C127.858 61.6499 127.067 59.3934 127.067 56.4639C127.067 53.5344 127.858 51.2779 129.442 49.6944C131.085 48.0713 133.46 47.2598 136.568 47.2598C139.675 47.2598 142.05 48.0812 143.693 49.7241ZM165.081 59.7299C168.248 59.7299 169.832 58.6412 169.832 56.4639C169.832 54.2866 168.248 53.1979 165.081 53.1979C161.914 53.1979 160.331 54.2866 160.331 56.4639C160.331 58.6412 161.914 59.7299 165.081 59.7299ZM160.331 47.5567V49.7241C161.973 48.0812 164.349 47.2598 167.456 47.2598C170.564 47.2598 172.939 48.0713 174.582 49.6944C176.166 51.2779 176.957 53.5344 176.957 56.4639C176.957 59.3934 176.166 61.6499 174.582 63.2334C172.939 64.8565 170.564 65.668 167.456 65.668C164.349 65.668 161.973 64.8466 160.331 63.2037V71.3092H153.205V47.5567H160.331ZM185.875 49.5459C187.459 48.0218 189.735 47.2598 192.704 47.2598C195.713 47.2598 198.009 48.0416 199.592 49.6053C201.136 51.1294 201.908 53.3068 201.908 56.1373V65.3711H194.782V56.1373C194.782 54.0985 193.298 53.0791 190.329 53.0791C187.36 53.0791 185.875 54.0985 185.875 56.1373V65.3711H178.749V41.6185H185.875V49.5459Z" fill="#C7D2FE"/>
<line x1="81.9996" y1="34.1443" x2="202.247" y2="34.1443" stroke="#C7D2FE" stroke-width="1.48454" stroke-linecap="round" stroke-dasharray="0.74 4.45"/>
</svg>
