<svg width="21" height="20" viewBox="0 0 21 20" fill="none" xmlns="http://www.w3.org/2000/svg">
<path d="M10.5002 0C4.97735 0 0.5 4.47723 0.5 10.0001C0.5 15.5231 4.97735 20 10.5002 20C16.0236 20 20.5005 15.5231 20.5005 10.0001C20.5005 4.47759 16.0237 0 10.5002 0ZM15.0862 14.423C15.0435 14.4929 14.9875 14.5537 14.9213 14.6019C14.8551 14.6502 14.78 14.6849 14.7003 14.7041C14.6207 14.7233 14.5381 14.7266 14.4571 14.7138C14.3762 14.701 14.2986 14.6724 14.2288 14.6295C11.8809 13.1954 8.92509 12.8706 5.44414 13.6659C5.28296 13.7025 5.11382 13.6737 4.97389 13.5857C4.83396 13.4977 4.7347 13.3577 4.69792 13.1966C4.6796 13.1168 4.6772 13.0341 4.69085 12.9534C4.70451 12.8727 4.73396 12.7955 4.77751 12.7261C4.82105 12.6568 4.87785 12.5968 4.94464 12.5494C5.01143 12.5021 5.08691 12.4684 5.16674 12.4502C8.97608 11.5799 12.2436 11.9546 14.8796 13.5656C15.1734 13.7459 15.2665 14.1292 15.0862 14.423ZM16.3102 11.7001C16.0845 12.0669 15.6045 12.1827 15.2379 11.957C12.5498 10.3048 8.45233 9.82631 5.2729 10.7914C4.86056 10.916 4.42506 10.6836 4.29991 10.272C4.24019 10.0741 4.26139 9.86057 4.35886 9.67829C4.45633 9.496 4.62211 9.35981 4.81984 9.29957C8.45161 8.19761 12.9666 8.73139 16.0535 10.6283C16.4201 10.854 16.5359 11.3339 16.3102 11.7001ZM16.4153 8.86466C13.1923 6.95032 7.87472 6.7743 4.79751 7.70825C4.30337 7.85811 3.78081 7.57916 3.63106 7.08502C3.55906 6.84761 3.58429 6.59133 3.7012 6.37252C3.81812 6.15372 4.01715 5.9903 4.25453 5.91821C7.78695 4.84587 13.6592 5.05305 17.3699 7.2559C17.4756 7.31846 17.568 7.40127 17.6417 7.49959C17.7154 7.59791 17.769 7.7098 17.7994 7.82886C17.8298 7.94791 17.8364 8.0718 17.8188 8.19341C17.8013 8.31503 17.7599 8.43198 17.6971 8.53758C17.4344 8.98205 16.8583 9.12857 16.4153 8.86466Z" fill="#0F172A"/>
</svg>
