<svg width="20" height="20" viewBox="0 0 20 20" fill="none" xmlns="http://www.w3.org/2000/svg">
<g clip-path="url(#clip0_126_4932)">
<circle cx="10" cy="10" r="10" fill="white"/>
<path d="M10 6.33367V5M10 15V13.667" stroke="#0F172A" stroke-width="1.5" stroke-miterlimit="10" stroke-linecap="round" stroke-linejoin="round"/>
<path d="M11.9723 8.00004C11.8936 7.53396 11.6522 7.11084 11.2912 6.80575C10.9301 6.50066 10.4727 6.3333 10 6.33337C8.8955 6.33337 8 7.06204 8 8.16671C8 9.27137 9 9.77154 10 10C11 10.2255 12 10.7292 12 11.8334C12 12.9375 11.1045 13.6667 10 13.6667C9.46957 13.6667 8.96086 13.456 8.58579 13.0809C8.21071 12.7058 8 12.1971 8 11.6667" stroke="#0F172A" stroke-width="1.5" stroke-miterlimit="10" stroke-linecap="round" stroke-linejoin="round"/>
<path fill-rule="evenodd" clip-rule="evenodd" d="M7.50003 2.92676C4.58703 3.95634 2.5 6.73445 2.5 10C2.5 13.2656 4.58703 16.0437 7.50003 17.0733V15.456C5.43448 14.508 4 12.4215 4 10C4 7.5785 5.43448 5.49203 7.50003 4.54403V2.92676ZM12.5 15.4559C14.5655 14.5079 16 12.4215 16 10C16 7.57852 14.5655 5.49208 12.5 4.54406V2.92678C15.413 3.95638 17.5 6.73447 17.5 10C17.5 13.2655 15.413 16.0436 12.5 17.0732V15.4559Z" fill="#0F172A"/>
</g>
<defs>
<clipPath id="clip0_126_4932">
<rect width="20" height="20" fill="white"/>
</clipPath>
</defs>
</svg>
