<svg width="40" height="40" viewBox="0 0 40 40" fill="none" xmlns="http://www.w3.org/2000/svg">
<path d="M26.6668 35V31.6667C26.6668 29.8986 25.9645 28.2029 24.7142 26.9526C23.464 25.7024 21.7683 25 20.0002 25H10.0002C8.23205 25 6.53636 25.7024 5.28612 26.9526C4.03588 28.2029 3.3335 29.8986 3.3335 31.6667V35" stroke="#64748B" stroke-width="1.5" stroke-linecap="round" stroke-linejoin="round"/>
<path d="M15.0002 18.3333C18.6821 18.3333 21.6668 15.3486 21.6668 11.6667C21.6668 7.98477 18.6821 5 15.0002 5C11.3183 5 8.3335 7.98477 8.3335 11.6667C8.3335 15.3486 11.3183 18.3333 15.0002 18.3333Z" stroke="#64748B" stroke-width="1.5" stroke-linecap="round" stroke-linejoin="round"/>
<path d="M36.6665 35V31.6667C36.6654 30.1896 36.1738 28.7546 35.2688 27.5872C34.3638 26.4198 33.0967 25.586 31.6665 25.2167" stroke="#64748B" stroke-width="1.5" stroke-linecap="round" stroke-linejoin="round"/>
<path d="M26.6665 5.21667C28.1005 5.58384 29.3716 6.41784 30.2792 7.58719C31.1869 8.75654 31.6796 10.1947 31.6796 11.675C31.6796 13.1553 31.1869 14.5935 30.2792 15.7628C29.3716 16.9322 28.1005 17.7662 26.6665 18.1333" stroke="#64748B" stroke-width="1.5" stroke-linecap="round" stroke-linejoin="round"/>
</svg>
